<?xml version="1.0" encoding="iso-8859-1"?>
<!-- Uploaded to: SVG Repo, www.svgrepo.com, Generator: SVG Repo Mixer Tools -->
<svg fill="#000000" height="800px" width="800px" version="1.1" id="Layer_1" xmlns="http://www.w3.org/2000/svg" xmlns:xlink="http://www.w3.org/1999/xlink" 
	 viewBox="0 0 463 463" xml:space="preserve">
<g transform="translate(0 -540.36)">
	<g>
		<g>
			<path d="M263.9,687.709L263.9,687.709c1,0,2-0.2,2.6-0.7c3.2-1.4,13.8-6.5,17.3-13.3c7.9-14.2,4.2-29.6-0.6-45.4
				c-2.9-11.9-0.5-24.9,6.6-35.7c7.4-11.3,19.1-18.9,32.1-21c11.8-1.7,24.6,1.7,34.4,9.1c8.7,6.5,14.2,15.6,15.6,25.6
				c0,0.1,0,0.1,0,0.2c1.7,10.6-1.1,21.9-7.5,30.2c-3.9,5.1-10.9,11.3-21.9,12.4c-0.2,0-0.4,0.1-0.6,0.1c-7.3,1.4-15.2-0.5-21.6-5.2
				c-6.5-4.8-10.9-11.9-11.8-19.5v-0.1c-1-6.9,0.8-13.8,4.9-18.9c2.6-3.1,7.1-7,14.4-7.5c0.1,0,0.1,0,0.2,0c4.8-0.5,10,1.2,13.6,4.4
				c2,1.8,4.3,4.8,4.3,9.3c0,2.9-1.5,6.2-3.6,7.6c-1.1,0.8-2.2,0.9-3.6,0.4c-3.9-1.4-8.2,0.5-9.7,4.4c-1.4,3.9,0.5,8.2,4.4,9.7
				c6.1,2.2,12.3,1.5,17.5-2.1c6.1-4.2,10.1-12,10.1-19.9c0-7.8-3.2-15-9.2-20.4c-6.6-6.1-16-9.2-25-8.3c-9.9,0.7-18.7,5.3-24.9,13
				c-6.7,8.3-9.7,19.4-8.1,30.4c1.5,11.6,8,22.5,17.9,29.7c9.6,7.1,21.6,9.9,32.9,7.9c12.6-1.4,23.9-7.8,31.9-18.1
				c9-11.7,12.8-26.8,10.5-41.6c-1.9-13.9-9.5-26.5-21.4-35.5c-13.1-9.9-29.7-14.3-45.6-12h-0.1c-17.1,2.7-32.6,12.7-42.3,27.5
				c-9.5,14.3-12.6,31.7-8.6,47.8c0,0.1,0.1,0.3,0.1,0.4c4.8,15.6,6.6,25.7,1.9,34.1c0,0.1-0.1,0.1-0.1,0.2
				c-0.9,1.4-5.8,4.6-10.1,6.5c-3.8,1.7-5.5,6.1-3.8,9.9C258.3,686.009,261,687.709,263.9,687.709z"/>
			<path d="M443.1,922.309H314.5c29.2-15.2,53.5-38,70.6-65.6c5.7,5.9,13,10.3,20.9,12.4c3.8,1,7.7,1.6,11.5,1.6
				c7.1,0,14.1-1.8,20.3-5.3c21.9-10.5,31.3-37.2,20.8-59.7l-0.3-0.5c-9.8-17.2-28.4-25.9-46.7-23.2c1.1-8.4,1.6-16.9,1.6-25.6
				c0-0.4,0-0.8,0-1.2c0-15.1-19.2-27.3-56.9-36.3c-33.6-8-78-12.4-124.8-12.4c-9.8,0-19.4,0.2-28.9,0.6c2.4-8.7,9.4-16.8,19.4-27.9
				c11.8-12.5,17.6-29.4,16.5-47.6c-1.3-20.6-11.2-40-27.2-53.1c-0.1-0.1-0.2-0.1-0.2-0.2c-14.5-10.9-33.1-15.7-51.1-13.1
				c-16.5,2.4-30.8,10.6-40.3,23.3l-0.1,0.1c-19.3,26.8-14.7,63.4,10.4,81.5c11.3,8.3,25.9,11.7,40,9.3c13.1-2.2,24.3-9.2,31.6-19.7
				c7-9.4,9.7-22.1,7.3-33.8c-2.3-11.1-8.8-20.2-18.3-25.7c-9.2-5.5-21-7.1-30.7-4c-7.7,2.4-13.8,7.6-17.1,14.6
				c-4.1,7.4-4.4,16.8-0.7,24c3.1,6.1,8.5,9.8,15.3,10.6c4.1,0.5,7.8-2.5,8.3-6.6s-2.5-7.8-6.6-8.3c-1.7-0.2-2.8-1-3.6-2.5
				c-1.4-2.7-1.2-7.1,0.5-10.1c0.1-0.2,0.2-0.4,0.3-0.6c1.5-3.3,4.2-5.6,8-6.8c5.7-1.8,13-0.7,18.6,2.6l0.1,0.1
				c5.8,3.3,9.7,8.9,11.2,15.8c1.6,7.6-0.2,15.8-4.7,21.9c-0.1,0.1-0.1,0.2-0.2,0.3c-4.9,7.2-12.7,12-21.8,13.6
				c-10.1,1.7-20.5-0.7-28.6-6.7c-18.4-13.3-21.5-40.5-7.1-60.6c7.1-9.5,17.9-15.6,30.3-17.4c14-2,28.6,1.7,39.9,10.2
				c12.5,10.3,20.6,26.2,21.6,42.4c0.9,14.1-3.5,27-12.5,36.4l-0.1,0.1c-11.1,12.2-21.6,23.8-23.9,38.8c-30.3,1.9-58.1,5.6-80.9,11
				c-37.5,8.9-56.5,21.1-56.5,36.3c0,0.5,0,1,0.1,1.5c0,70.7,38.6,134,97.9,165.7H19.9c-11.6,0-19.9,8.4-19.9,20s8.4,20,19.9,20H55
				l22.4,14.6c6.6,6.2,16.8,10.3,25.9,10.3h256.4c9.3,0,18.3-3.4,26.9-10.2l21.5-14.8h35c11,0,19.9-9,19.9-20
				S454.1,922.309,443.1,922.309z M408.8,798.009c13.7-4.5,28.7,1.2,36.3,14.2h0c6.9,15.1,0.6,32.9-13.9,39.7l-0.5,0.3
				c-6.2,3.5-13.5,4.4-20.7,2.5c-6.8-1.9-12.9-6.1-17.1-11.9C400,828.809,405.4,813.709,408.8,798.009z M64.9,754.709
				c0.8-3.7,9.9-13,44.8-21.3v0c22.1-5.3,49.3-8.9,79-10.7c2.2,5.3,5.6,10.1,6.9,12c1.5,2,3.7,3,6,3c1.6,0,3.1-0.5,4.5-1.5
				c3.3-2.5,4-7.2,1.5-10.5c-0.9-1.2-1.7-2.5-2.5-3.8c8.6-0.3,17.5-0.5,26.4-0.5c45.7,0,88.8,4.2,121.3,12
				c35.6,8.5,44.6,17.8,45.4,21.3c0,0.3,0,0.6,0,0.9c-0.5,2.6-5.7,8.5-23.2,14.9c-3.2-4.9-10.4-8.6-22.9-11.8
				c-11.9-3.1-27.9-5.6-46.4-7.1c-46.3-5-104.6-5-148.4,0c-18.9,2.1-34,4.6-44.9,7.5c-12.6,3.4-19.5,7.1-22.5,12.2
				c-18.8-6.5-24.4-12.7-25-15.5C64.9,755.409,64.9,755.109,64.9,754.709z M357,775.809c-1.3,0.3-2.7,0.7-4.1,1
				c-32.5,7.7-75.6,12-121.3,12c-46.2,0-89.4-4.2-121.8-12c-0.8-0.2-1.5-0.4-2.3-0.6c6.3-2.5,20.4-6.5,51.5-10
				c42.9-4.9,99.8-4.9,145.2,0c0.1,0,0.1,0,0.2,0C333.4,768.809,349.4,772.809,357,775.809z M66,776.809
				c9.4,5.5,22.8,10.4,40.3,14.6c33.5,8,78,12.4,125.2,12.4c46.8,0,91.1-4.4,124.8-12.4c17.7-4.2,31.3-9.1,40.8-14.7
				c-7.8,69.8-56.4,127.9-124.3,145.6h-85.1C121.4,903.609,73.8,845.609,66,776.809z M377.8,964.809L377.8,964.809
				c-0.2,0.1-0.3,0.2-0.4,0.3c-5.9,4.8-11.7,7.1-17.7,7.1H103.3c-5.3,0-12.1-2.8-15.8-6.5c-0.4-0.4-0.8-0.7-1.2-1l-3.7-2.4h299
				L377.8,964.809z M443.1,947.209h-37.4H20c-3.3,0-4.9-1.6-4.9-5s1.6-5,4.9-5h423.1c2,0,4.9,1.6,4.9,5
				C448,945.709,445,947.209,443.1,947.209z"/>
		</g>
	</g>
</g>
</svg>